<svg xmlns="http://www.w3.org/2000/svg" xmlns:xlink="http://www.w3.org/1999/xlink" t="1681790318536" class="icon" viewBox="0 0 1024 1024" version="1.1" p-id="10660" width="1024" height="1024">
    <path d="M590.029 608.104c-11.021 0-22.206-0.03-33.536-0.059a13364.7 13364.7 0 0 0-70.51 0c-11.328 0.03-22.512 0.059-33.523 0.059-85.109 0-166.315-1.615-224.394-21.123-65.814-22.106-97.807-65.745-97.807-133.412 0-39.389 9.093-80.889 26.296-120.013 17.899-40.708 43.565-77.62 76.283-109.712 34.981-34.31 76.317-61.292 122.86-80.195 50.671-20.58 106.369-31.014 165.548-31.014 58.23-0.001 113.346 10.437 163.818 31.021 46.406 18.927 87.788 45.892 122.996 80.149 32.598 31.718 59.312 69.638 77.253 109.661 17.611 39.284 26.919 80.816 26.919 120.105 0 67.662-31.995 111.3-97.815 133.408-58.089 19.508-139.287 21.125-224.388 21.125z m-68.784-27.755c11.913 0 23.693 0.031 35.321 0.062 11.305 0.03 22.467 0.059 33.463 0.059 177.937 0 294.569-8.832 294.569-126.901 0-73.097-35.816-151.587-95.81-209.96-68.493-66.641-163.508-103.343-267.544-103.342-224.434 0-363.353 162.627-363.353 313.302 0 55.805 24.356 88.872 78.973 107.217 54.126 18.18 132.867 19.684 215.596 19.684 10.986 0 22.146-0.03 33.45-0.059 11.636-0.031 23.424-0.062 35.335-0.062z" fill="currentColor" p-id="10661"/><path d="M543.354 924.454h-2.763c-0.179 0-0.358-0.004-0.536-0.011-74.672-0.463-125.931-16.738-156.63-49.711-26.095-28.03-36.927-67.56-33.114-120.851 0.03-0.418 0.079-0.834 0.147-1.248 0.41-2.506 10.1-61.602 13.862-81.922 6.23-33.64-4.901-71.543-5.014-71.922-2.183-7.312 1.974-15.009 9.286-17.192 7.31-2.186 15.009 1.974 17.192 9.286 0.54 1.808 13.136 44.74 5.707 84.86-3.507 18.941-12.59 74.203-13.662 80.732-3.114 44.897 5.334 77.423 25.82 99.428 25.431 27.314 70.605 40.705 138.078 40.915 91.854-0.407 144.498-50.384 144.498-137.26l0.001-0.138c-0.007-0.649-0.426-24.018-19.957-80.057-17.639-50.605-7.194-87.431-6.741-88.973 2.149-7.321 9.827-11.515 17.15-9.362 7.299 2.144 11.488 9.781 9.383 17.082-0.178 0.649-8.159 30.675 6.301 72.16 20.978 60.195 21.532 85.87 21.495 89.376-0.019 52.219-17.095 95.011-49.386 123.756-29.461 26.226-70.998 40.378-120.306 41.03a15.5 15.5 0 0 1-0.811 0.022z" fill="currentColor" p-id="10662"/><path d="M441.585 844.183c-1.925 0-3.839-0.8-5.205-2.363-28.811-32.976-22.456-97.438-22.171-100.165 0.396-3.795 3.778-6.559 7.588-6.154a6.907 6.907 0 0 1 6.154 7.584c-0.063 0.608-6.004 61.217 18.833 89.644a6.91 6.91 0 0 1-5.199 11.454zM800.839 356.188a6.91 6.91 0 0 1-6.777-5.615c-7.074-37.082-58.458-69.766-58.976-70.092-3.229-2.03-4.203-6.294-2.175-9.524s6.286-4.208 9.52-2.178c2.323 1.457 56.997 36.191 65.202 79.205a6.908 6.908 0 0 1-6.794 8.204z" fill="currentColor" p-id="10663"/>
</svg>